<?xml version="1.0" standalone="no"?>
<!DOCTYPE svg PUBLIC "-//W3C//DTD SVG 20010904//EN"
 "http://www.w3.org/TR/2001/REC-SVG-20010904/DTD/svg10.dtd">
<svg version="1.0" xmlns="http://www.w3.org/2000/svg"
 width="524.000000pt" height="524.000000pt" viewBox="0 0 524.000000 524.000000"
 preserveAspectRatio="xMidYMid meet">
<metadata>
Created by potrace 1.11, written by Peter Selinger 2001-2013
</metadata>
<g transform="translate(0.000000,524.000000) scale(0.100000,-0.100000)"
fill="#000000" stroke="none">
<path d="M2439 5236 c-2 -2 -38 -6 -79 -10 -41 -3 -84 -8 -95 -10 -11 -2 -42
-7 -70 -11 -229 -33 -554 -141 -780 -260 -260 -137 -447 -275 -660 -489 -155
-156 -311 -360 -411 -539 -50 -90 -144 -286 -144 -300 0 -7 -4 -17 -9 -22 -23
-25 -102 -284 -132 -430 -11 -55 -22 -107 -24 -115 -35 -162 -40 -610 -10
-795 6 -36 15 -90 21 -125 3 -14 9 -41 14 -60 5 -19 11 -47 14 -63 6 -32 7
-36 42 -152 27 -88 86 -251 104 -283 5 -10 29 -60 54 -112 326 -689 1004
-1222 1771 -1394 142 -32 157 -35 235 -42 36 -4 69 -9 73 -11 18 -11 396 -12
487 -3 52 6 120 13 150 16 30 3 57 7 60 9 3 2 25 6 49 10 71 10 299 72 386
103 136 50 186 72 305 131 616 308 1094 855 1308 1496 34 100 62 197 69 235 2
14 8 41 13 60 15 60 39 211 47 300 17 183 6 527 -21 666 -3 12 -7 39 -10 60
-20 123 -112 437 -155 529 -116 244 -156 318 -244 450 -254 382 -613 694
-1037 901 -240 117 -540 209 -780 239 -25 3 -61 8 -80 11 -40 6 -455 15 -461
10z"/>
</g>
</svg>
